<svg xmlns="http://www.w3.org/2000/svg" viewBox="0 0 1348.25 378.88"><defs><style>.cls-1{fill:#3343e0;}</style></defs><g id="Layer_2" data-name="Layer 2"><g id="Layer_1-2" data-name="Layer 1"><path class="cls-1" d="M255.88,303.93c0,18.72.05,37.07,0,55.43,0,3.36,1.2,4.72,4.56,4.63s7,.42,10.5.22c5.64-.31,7.4,2,7.53,7.68.14,6.48-2.93,7-8,7q-39.39-.21-78.78,0c-4.51,0-7.7-.15-7.59-6.35.11-5.72,1.28-9.19,7.62-8.25,9.82,1.46,11.7-2.86,11.65-12.14-.4-78.78-.23-157.57-.23-236.36,0-12.43,0-12.22-12.14-11.25-3.11.25-7.59,3.49-9.43-2.57s-2.09-10,6.13-11.31Q217,85.91,246,79.47c6.18-1.36,7.15.93,7.16,5.78,0,10.4,0,20.8,0,32.69,4.69-7.24,7.91-14,12.91-19.52,26.06-28.93,69.38-23.33,86.68,11.47,11.37,22.87,12.77,47.74,12.89,72.56.14,28.12-2.42,56-14.41,82-17.79,38.61-51.09,53.1-91.41,40.06A28.73,28.73,0,0,0,255.88,303.93Zm0-85.85v53c0,16.19,5.7,22.23,21.91,24.57,9.15,1.33,15-1.51,18.47-10.23,2.69-6.78,5.35-13.52,7-20.65,7.22-31.86,7.37-64.24,6.47-96.62-.5-18-.84-36.2-5.9-53.74-2-7-3.82-15.63-11.91-16.93-7.64-1.22-13.23,5.33-17.74,11.08-10,12.75-14.17,27.89-16.52,43.61C254.14,175.38,256.75,198.77,255.87,218.08Z"/><path class="cls-1" d="M622.23,121.46c8.45-16.55,19.36-30,37-36.89a65.84,65.84,0,0,1,42.89-2c17.45,5,28.6,19.77,30.11,38.88,1.28,16-.2,32.07-.22,48.1,0,36.76-.08,73.52-.74,110.27-.15,8.77,1.85,13.3,11.28,12,6.52-.92,7.71,2.48,7.4,8.16-.22,4.14-.75,6.29-5.71,6.25q-38.07-.33-76.14,0c-5.5.06-6-2.39-6-6.84s.06-8.38,6.21-7.55c8.91,1.2,10.19-3.37,10.2-11.24.07-51.34.65-102.68,1.1-154,.07-7.32-.1-14.62-3.1-21.44-3.62-8.23-7.75-9.81-15.91-6.21-11.93,5.28-19,15.24-24.31,26.48a111.54,111.54,0,0,0-11,48.18c-.07,36.76.11,73.52-.21,110.28-.05,6.38,2.36,8.46,8.06,7.82,6.41-.71,8.27,1.73,8.33,8.31.07,7.41-4.27,6.11-8.48,6.11-23.92,0-47.85-.07-71.77.08-4.71,0-7.77-.31-7.44-6.39.26-4.9.36-8.08,6.83-8.12,13.64-.09,11.75.39,11.77-12.87,0-55.72-.07-111.44.14-167.16,0-6.78-1.19-10-8.57-7.2-2.14.81-4.69.49-6.86,1.24-5.86,2-6.21-2.09-6.9-5.87s-2-7,4.11-8.06c20.38-3.47,40.67-7.51,61-11.53,4.82-.95,7,.28,7,5.41C622.16,97.57,622.23,109.51,622.23,121.46Z"/><path class="cls-1" d="M0,198.85C-.12,173.32,2.63,150,12.65,128.09c14-30.51,37-48.27,71.54-47.91s59.38,17.15,71.48,49.1c17.26,45.53,15.68,91.7-4.4,136-14.42,31.83-40.65,47.26-76.08,44.29C41,306.72,20.43,286.43,9,255.54,2,236.73-.23,217.1,0,198.85Zm110.44-5.18c0-13.7.46-27.42-.12-41.1-.66-15.71-2.77-31.2-7.59-46.4C99.52,96,92.51,94.53,84.05,94.5c-8.62,0-16.71.47-19.83,11.31C61.72,114.5,59,123.09,58,132.09c-4.21,37.8-3.38,75.68-1.32,113.55.69,12.77,2.44,25.53,7.05,37.65,3.95,10.39,7.22,12.3,20.08,12.29,9.17,0,16.67-2.05,18.76-12.68,1.13-5.69,3.32-11.17,4.38-16.87C111.46,242.1,110.7,217.84,110.46,193.67Z"/><path class="cls-1" d="M1076.18,269.23c-5.18,11.52-9.74,20.92-17.7,28a50.52,50.52,0,0,1-56.27,7.43c-18.21-9.24-28.43-30-26.18-53.14,3.31-33.95,26.37-57.31,60.3-61.14,10.17-1.15,20.33-2,30.51-.32,3.4.58,5.58.09,5.68-4.14.56-24.75,3.16-49.56-.72-74.22-1-6.33-.61-14.77-10.07-16.27-10.21-1.62-20-2.86-27.51,7.39-12.81,17.45-20.46,37.14-27.06,57.43-.92,2.84-.82,6.29-5.22,7-8.87,1.52-10.86-.14-10.17-9.16,1.62-20.94,3.21-41.87,4.64-62.82.26-3.69.38-6.68,4.91-7.86,25.36-6.61,50.94-10.13,77-5.2,30.19,5.7,46.54,24.38,47.6,56,.74,22.13-.31,44.32-.69,66.48-.36,21.59-.94,43.17-1.27,64.75a70.51,70.51,0,0,0,.87,13.94c1.69,9.07,4.29,10.47,12.25,5.46,5.76-3.62,8-2.16,11.29,3.08,3.9,6.22-.52,7.53-4.16,9.54-10.38,5.74-21.31,9.06-33.43,8.29-18.6-1.19-29-9.71-32.85-27.92C1077.2,278.49,1077,275,1076.18,269.23Zm-46.25-20.75c.08,9.93.56,19.84,3.55,29.39,1.67,5.34,4.06,11.87,9.42,12.84,5.71,1,9.24-5.31,12.25-9.79,10.85-16.18,15.13-34.6,16.46-53.66,1.71-24.55.29-25.37-24.51-23.43-6.3.49-9.42,3.1-11.37,8.6A106.83,106.83,0,0,0,1029.93,248.48Z"/><path class="cls-1" d="M488,182c-13.41,0-26.83.13-40.24-.06-4.36-.07-6.23,1.09-6.19,5.86.19,22.76.85,45.46,7.12,67.57,3.81,13.44,10,25.35,21.28,34.29,5.27,4.17,10.13,4.5,16,1.37,13.84-7.43,22-19.66,28.57-33.2A116.25,116.25,0,0,0,519.81,244c2.42-7.13,6.64-8.76,13.25-5.11,1.86,1,2.42,2,1.89,4.09-6.81,27.14-19.41,50.63-46.22,62.12-24.19,10.37-47.52,5.46-68.13-10.63-13.06-10.19-21.1-24.25-25.64-39.84-12.17-41.76-11.69-83.55,3.4-124.47,8.62-23.41,23.77-41.64,49.25-48.06,42.86-10.8,79.7,14.89,86.49,59.84a154,154,0,0,1,1.57,31.39c-.33,6.09-2,9.26-9.24,8.87C513.64,181.48,500.79,182,488,182Zm-1.91-37.24c-.77-14.34-1.53-27.06-4.36-39.65-2.12-9.48-8.66-10.56-16.24-10.62s-14.31.59-16.87,9.9c-3.88,14.17-5.22,28.56-5.68,43.12-.63,20.16-.61,20.33,19.74,20.08,7.74-.1,17.82,3.48,22.6-1.64S485.78,151,486.05,144.74Z"/><path class="cls-1" d="M1226.82,146.21c0,45.19.19,90.39-.18,135.58-.07,7.74,2.27,10.82,9.78,9.95,6.19-.72,8.59,1.33,8.57,8.17,0,7.32-4.26,6.19-8.55,6.19-24.49,0-49,0-73.47,0-4.31,0-7.89.37-7.69-6.05.17-5.46.66-9.18,7.35-8.31,8.52,1.11,11.1-2.15,11-11.14-.41-81.35-.24-162.69-.24-244,0-12.34,0-12.43-12.11-10.74-5.07.71-8.73,1.06-9.48-6-.58-5.44.69-7,5.8-7.93,20.07-3.49,40.14-7.09,60.08-11.3,6.49-1.37,8.79-.42,8.76,6.57-.12,25.94.23,51.89.32,77.83C1226.88,105.39,1226.82,125.8,1226.82,146.21Z"/><path class="cls-1" d="M1330.13,145.6c0,45.19.18,90.39-.18,135.58-.06,7.81,1.93,11.61,10,10.56,6.59-.84,8.29,2,8.26,8.44,0,7.44-4.67,5.89-8.77,5.9-24.2,0-48.39,0-72.59,0-4.44,0-8.59.87-8.34-6.31.19-5.79,1.33-8.93,7.64-8,9.07,1.3,10.79-2.94,10.76-11.42q-.51-123.77,0-247.53c0-7.43-1.37-9.73-9.15-7.83-3.85.94-10.34,5.58-12.28-3.72-1.29-6.19-.08-8.54,6.6-9.62q29.75-4.8,59.21-11.17c7.07-1.54,8.52.51,8.51,6.92-.14,46.06-.08,92.13-.08,138.19Z"/><path class="cls-1" d="M882.89,185.67c-.64,23.9-.86,47.85,5.13,71.25,3.16,12.33,8.1,23.64,18.66,31.76,5.2,4,9.65,4.06,14.74-.24,14.16-11.94,20-28.29,24.36-45.37,1.35-5.29,2.77-8.12,9.23-6.53,5.82,1.44,7.37,3.25,5.65,9.36-3.57,12.67-7.35,25.15-14.42,36.38-21,33.3-65,37.65-92.11,9-14.4-15.17-21.11-34-24.42-54.14-5.6-34.09-5.36-68,5.76-101.1,9.87-29.31,28.23-50.25,60.43-55.14,18.23-2.76,36,.5,53.13,7.07,4.05,1.54,5.72,3.89,5.87,8.41.74,21.85,1.93,43.69,2.78,65.54.12,3.26,2.23,8.18-4.51,7.91-4.79-.19-9.57,1.27-11-6.25-3.9-20.61-8.94-41-18.66-59.81-5-9.61-10-11.91-20.33-10.75-5.86.66-9.38,3.39-11.58,8.86-6,14.84-7.76,30.47-8.59,46.17C882.37,160.57,882.89,173.14,882.89,185.67Z"/></g></g></svg>